<svg xmlns="http://www.w3.org/2000/svg" width="32" height="32" viewBox="0 0 32 32" role="img" aria-label="AI Translate Assistant toolbar icon">
  <rect x="1" y="1" width="30" height="30" rx="7" fill="#0f766e"/>
  <path d="M8 7h16c1.7 0 3 1.3 3 3v11c0 1.7-1.3 3-3 3h-6.2L12 29v-5H8c-1.7 0-3-1.3-3-3V10c0-1.7 1.3-3 3-3Z" fill="#ecfdf5"/>
  <path d="M10 13h10M15 10v4.2M11.1 19c3.2-1 5.7-3 7.2-6.2M11.7 15.1c1.4 2.8 3.9 4.8 7.7 5.9" fill="none" stroke="#0f766e" stroke-width="2.4" stroke-linecap="square" stroke-linejoin="round"/>
  <path d="M21 22l3.1-8h1.5l3.1 8h-2.2l-.5-1.5h-2.5L23 22h-2Zm3-3.4h1.5l-.8-2.4-.7 2.4Z" fill="#0f766e"/>
</svg>
