<svg xmlns="http://www.w3.org/2000/svg" width="1024" height="1024" viewBox="0 0 1024 1024" role="img" aria-label="AI Translate Assistant">
  <rect width="1024" height="1024" rx="224" fill="#0f766e"/>
  <path d="M224 248h576c35.3 0 64 28.7 64 64v400c0 35.3-28.7 64-64 64H584L448 896c-26.1 23-67.2 4.5-67.2-30.3V776H224c-35.3 0-64-28.7-64-64V312c0-35.3 28.7-64 64-64Z" fill="#ecfdf5"/>
  <path d="M336 392h120v-64h80v64h128v72H560c-12.8 48.8-33.6 91.2-62.4 125.6 25.6 16.8 54.4 30.4 86.4 40.8l-40 64.8c-37.6-13.6-71.2-32-100.8-54.4-30.4 23.2-65.6 41.6-104.8 55.2L300.8 631c32-9.6 61.6-23.2 87.2-40.8a336 336 0 0 1-48.8-77.6l66.4-24.8c10.4 21.6 23.2 40.8 38.4 57.6A265.6 265.6 0 0 0 484 464H336v-72Z" fill="#0f766e"/>
  <path d="M644 656h69.6L679.2 556 644 656Zm92 64H621.6L604 771.2h-84L641.6 440H720l123.2 331.2H753.6L736 720Z" fill="#0f766e"/>
</svg>
